Format                                   : Matroska
Format version                           : Version 2
File size                                : 1.29 GiB
Duration                                 : 1h 41mn
Overall bit rate                         : 1 823 Kbps
Movie name                               : THE_BIG_BANG.Title1.BlurayRip
Encoded date                             : UTC 2013-02-06 21:26:45
Writing application                      : DVDFab
Writing library                          : libebml v0.7.8 + libmatroska v0.8.1

Video
ID                                       : 1
Format                                   : AVC
Format/Info                              : Advanced Video Codec
Format profile                           : High@L4.1
Format settings, CABAC                   : Yes
Format settings, ReFrames                : 2 frames
Codec ID                                 : V_MPEG4/ISO/AVC
Duration                                 : 1h 41mn
Bit rate                                 : 1 531 Kbps
Width                                    : 1 280 pixels
Height                                   : 544 pixels
Display aspect ratio                     : 2.35:1
Frame rate mode                          : Constant
Frame rate                               : 23.976 fps
Color space                              : YUV
Chroma subsampling                       : 4:2:0
Bit depth                                : 8 bits
Scan type                                : Progressive
Bits/(Pixel*Frame)                       : 0.092
Stream size                              : 1.08 GiB (84%)
Writing library                          : x264 core
Default                                  : Yes
Forced                                   : No
Color primaries                          : BT.709
Transfer characteristics                 : BT.709
Matrix coefficients                      : BT.709

Audio
ID                                       : 2
Format                                   : AC-3
Format/Info                              : Audio Coding 3
Mode extension                           : CM (complete main)
Format settings, Endianness              : Big
Codec ID                                 : A_AC3
Duration                                 : 1h 41mn
Bit rate mode                            : Constant
Bit rate                                 : 256 Kbps
Channel(s)                               : 6 channels
Channel positions                        : Front: L C R, Side: L R, LFE
Sampling rate                            : 48.0 KHz
Bit depth                                : 16 bits
Compression mode                         : Lossy
Stream size                              : 185 MiB (14%)
Language                                 : English
Default                                  : Yes
Forced                                   : No

Menu
00:00:00.000                             : en:(01)00:00:00:000
00:03:33.087                             : en:(02)00:03:33:087
00:09:35.783                             : en:(03)00:09:35:783
00:21:20.112                             : en:(04)00:21:20:112
00:29:57.629                             : en:(05)00:29:57:629
00:37:32.208                             : en:(06)00:37:32:208
00:49:07.778                             : en:(07)00:49:07:778
01:00:21.909                             : en:(08)01:00:21:909
01:09:29.790                             : en:(09)01:09:29:790
01:20:02.881                             : en:(10)01:20:02:881
01:28:43.151                             : en:(11)01:28:43:151
01:37:09.073                             : en:(12)01:37:09:073
01:41:16.820                             : en:(13)01:41:16:820
